<?xml version="1.0" encoding="UTF-8"?>
<svg width="32" height="32" viewBox="0 0 32 32" fill="none" xmlns="http://www.w3.org/2000/svg">
  <path d="M31.0064 4.23744L16.0001 31.9999L0.993652 4.23744C0.918652 4.08744 0.956152 3.90619 1.08115 3.79369L2.99365 2.06244C3.11865 1.94994 3.29365 1.93744 3.4374 2.03119L16.0001 10.3937L28.5624 2.03119C28.7062 1.93744 28.8812 1.94994 29.0062 2.06244L30.9187 3.79369C31.0437 3.90619 31.0812 4.08744 31.0064 4.23744Z" fill="#FFD02C"/>
  <path d="M16.0001 10.3937L0.993652 4.23744L16.0001 31.9999L31.0064 4.23744L16.0001 10.3937Z" fill="url(#paint0_linear_87_2)" fill-opacity="0.5"/>
  <path d="M16.0001 10.3937L1.11255 2.41869C1.1688 2.28119 1.31255 2.19369 1.4688 2.19369H30.5313C30.6876 2.19369 30.8313 2.28119 30.8876 2.41869L16.0001 10.3937Z" fill="#FFD02C"/>
  <defs>
    <linearGradient id="paint0_linear_87_2" x1="16" y1="4.23744" x2="16" y2="31.9999" gradientUnits="userSpaceOnUse">
      <stop stop-color="#FFD02C"/>
      <stop offset="1" stop-color="#FFD02C" stop-opacity="0"/>
    </linearGradient>
  </defs>
</svg>
